<?xml version="1.0" encoding="utf-8"?>
<!-- Generator: Adobe Illustrator 18.1.1, SVG Export Plug-In . SVG Version: 6.00 Build 0)  -->
<svg version="1.1" id="Layer_1" xmlns="http://www.w3.org/2000/svg" xmlns:xlink="http://www.w3.org/1999/xlink" x="0px" y="0px"
	 viewBox="0 0 300 300" enable-background="new 0 0 300 300" xml:space="preserve">
<g opacity="5.000000e-02">
	<path fill="#FFFFFF" d="M152,145C152,145,152,145,152,145c-16.7-5.9-32.1-10.6-46.2-14.1c-23.9-8.1-44.7-16.6-62.7-25.4
		c5.8,1.1,12,2.4,18.5,4.2C86.6,116.3,116.5,127.7,152,145L152,145c-2.4-1.3-4.7-2.6-7.1-3.9C93.1,113,56.6,101,32.1,99.9
		c-4.7-2.5-9.1-5-13.4-7.5c2.4,2.5,5,5,8,7.4c-6.4,0.1-11.9,1.1-16.6,2.8c6.6-0.2,13.8,0.1,21.6,1.1c9.9,7.2,22.5,13.9,38.3,20.1
		c-16.9-2.3-31.3-2.5-43.6-1c-7.3-2.9-13.7-6.1-19.3-9.5c3.1,3.7,7.4,7.2,12.9,10.4c-3.8,0.7-7.4,1.5-10.7,2.6
		c5-0.1,10.2-0.1,15.5,0c21.8,10.8,59.6,18,119.1,18.6C146.5,145,149.2,145,152,145C152,145,152,145,152,145
		C152,145,152,145,152,145C152,145,152,145,152,145z M55.4,132.1c-6.5-1.6-12.5-3.4-18.1-5.3c20.2,1.1,42.7,3.7,67.6,8.2
		c14,3.7,29.7,7.1,47.1,10C112.3,143,80.5,138.5,55.4,132.1z"/>
	<polygon fill="#FFFFFF" points="152,145 152,145 152,145 	"/>
	<polygon fill="#FFFFFF" points="152,145 152,145 152,145 	"/>
	<path fill="#FFFFFF" d="M277.6,167.2c7.3,2.9,13.7,6.1,19.3,9.5c-3.1-3.7-7.4-7.2-12.9-10.4c3.8-0.7,7.4-1.5,10.7-2.6
		c-5,0.1-10.2,0.1-15.5,0c-21.8-10.8-59.6-18-119.1-18.6c-2.7,0-5.4,0-8.1,0c2.7,0,5.4,0,8.1,0c59.5-0.6,97.3-7.8,119.1-18.6
		c5.3-0.1,10.5-0.1,15.5,0c-3.3-1-6.9-1.9-10.7-2.6c5.5-3.2,9.7-6.7,12.9-10.4c-5.6,3.4-12,6.5-19.3,9.5c-12.3-1.5-26.7-1.2-43.6,1
		c15.8-6.2,28.4-12.9,38.3-20.1c7.8-1,15.1-1.3,21.6-1.1c-4.6-1.7-10.1-2.7-16.6-2.8c2.9-2.4,5.6-4.9,8-7.4c-4.3,2.5-8.7,5-13.4,7.5
		c-24.5,1.1-61,13.1-112.8,41.2c-2.3,1.3-4.7,2.6-7.1,3.9c0,0,0,0,0,0c2.4-1.3,4.7-2.7,7-4c51.2-29.2,80.2-53.6,93.5-73.5
		c4.6-2.7,9-5.1,13.4-7.4c-3.4,0.7-7,1.7-10.6,3c3.1-5.4,5-10.5,5.7-15.2c-3.1,5.6-7,11.4-11.8,17.5c-11.4,4.6-23.8,11.8-37.2,21.9
		c10.5-12.9,17.9-24.9,22.7-35.8c6.3-4.6,12.4-8.4,18.2-11.4c-4.9,0.8-10.2,2.6-15.8,5.5c1.3-3.5,2.3-6.9,3.1-10.2
		c-2.4,4.2-5,8.5-7.7,12.9c-20.7,12.8-46,40.7-76.3,90.1c-1.4,2.2-2.7,4.5-4.1,6.8c1.4-2.3,2.7-4.6,4-6.8
		c29.2-50,41.6-85.1,42.8-108.7c2.6-4.5,5.1-8.8,7.8-12.9c-2.6,2.3-5.2,4.8-7.7,7.7c-0.2-6.2-1.2-11.5-2.9-16
		c0.2,6.3-0.1,13.3-1.1,20.8c-7.4,9.5-14.5,21.7-20.9,36.9c2.4-16.2,2.6-30.2,1.1-42c3.1-7,6.3-13.2,9.8-18.6
		c-3.8,3-7.5,7.1-10.8,12.4c-0.7-3.7-1.6-7.1-2.7-10.4c0.1,4.8,0.1,9.8,0,14.9c-11.3,21-18.7,57.4-19.3,114.8c0,2.6,0,5.2,0,7.9
		c0-2.7,0-5.3,0-7.9c-0.6-57.3-8.1-93.8-19.3-114.8c-0.1-5.1-0.1-10.1,0-14.9c-1.1,3.2-2,6.7-2.7,10.4c-3.3-5.3-7-9.4-10.8-12.4
		c3.5,5.4,6.8,11.6,9.8,18.6c-1.5,11.8-1.3,25.7,1.1,42c-6.4-15.2-13.4-27.4-20.9-36.9c-1-7.6-1.4-14.5-1.1-20.8
		c-1.8,4.5-2.8,9.8-2.9,16c-2.5-2.8-5.1-5.4-7.7-7.7c2.6,4.1,5.2,8.4,7.8,12.9c1.2,23.6,13.6,58.8,42.8,108.7c1.3,2.3,2.7,4.5,4,6.8
		c0,0,0,0,0,0c-1.4-2.3-2.8-4.6-4.1-6.8c-30.3-49.4-55.7-77.3-76.3-90.1c-2.8-4.4-5.3-8.7-7.7-12.9c0.7,3.3,1.8,6.7,3.1,10.2
		c-5.6-3-10.9-4.8-15.8-5.5c5.8,3,11.9,6.8,18.2,11.4c4.8,11,12.2,22.9,22.7,35.8C78.5,77.1,66.2,69.9,54.8,65.3
		C50,59.2,46.1,53.4,43,47.8c0.8,4.7,2.7,9.8,5.7,15.2c-3.7-1.2-7.2-2.2-10.6-3c4.4,2.3,8.9,4.8,13.4,7.4
		c13.3,19.9,42.3,44.4,93.5,73.5c2.3,1.3,4.6,2.6,7,4c0,0,0,0,0,0h0c0,0,0,0,0,0c0,0,0,0,0,0c0,0,0,0,0,0l0,0c0,0,0,0,0,0
		c0,0,0,0,0,0c0,0,0,0,0,0l0,0c0,0,0,0,0,0c0,0,0,0,0,0c-18-34.2-29.9-63-36.7-87.1c-1.8-6.3-3.2-12.2-4.3-17.8
		c9.1,17.3,17.9,37.4,26.4,60.4c3.7,13.6,8.5,28.4,14.6,44.5c0,0,0,0,0,0c0,0,0,0,0,0c0,0,0,0,0,0c0,0,0,0,0,0
		c2.1-38.3,6.8-68.9,13.4-93.1c1.7-6.3,3.5-12.1,5.5-17.5c-1.1,19.4-3.9,41.1-8.5,65.1c-3.8,13.5-7.3,28.6-10.4,45.4v0c0,0,0,0,0,0
		c0,0,0,0,0,0v0c0,0,0,0,0,0c0,0,0,0,0,0c0,0,0,0,0,0c0,0,0,0,0,0c21.7-32.1,41.7-56.4,59.9-74.2c4.7-4.6,9.3-8.8,13.8-12.5
		c-11,16.3-24.6,33.7-41.1,52.2c-10.4,9.9-21.3,21.3-32.7,34.5c0,0,0,0,0,0c0,0,0,0,0,0c0,0,0,0,0,0c0,0,0,0,0,0c0,0,0,0,0,0
		c0,0,0,0,0,0c0,0,0,0,0,0c0,0,0,0,0,0c0,0,0,0,0,0c0,0,0,0,0,0h0c0,0,0,0,0,0c0,0,0,0,0,0c0,0,0,0,0,0h0v0c0,0,0,0,0,0h0l0,0v0h0
		c0,0,0,0,0,0c0,0,0,0,0,0c0,0,0,0,0,0h0c0,0,0,0,0,0c0,0,0,0,0,0c0,0,0,0,0,0c0,0,0,0,0,0h0l0,0v0v0c0,0,0,0,0,0c0,0,0,0,0,0
		c3,16.8,6.5,31.9,10.4,45.4c4.7,24,7.4,45.7,8.5,65.1c-2-5.4-3.8-11.2-5.5-17.5c-6.6-24.2-11.3-54.8-13.4-93.1c0,0,0,0,0,0
		c0,0,0,0,0,0h0v0h0c0,0,0,0,0,0l0,0c0,0,0,0,0,0l0,0c0,0,0,0,0,0c0,0,0,0,0,0c0,0,0,0,0,0c0,0,0,0,0,0h0
		c-13.7,11-25.5,21.5-35.8,31.5c-19.2,15.9-37.3,29-54.2,39.6c3.9-4.3,8.2-8.8,13-13.3c18.4-17.6,43.6-36.8,77-57.7c0,0,0,0,0,0
		c0,0,0,0,0,0l0,0c0,0,0,0,0,0h0c0,0,0,0,0,0c0,0,0,0,0,0h0c0,0,0,0,0,0c-2.8,0-5.5,0-8.2,0c-59.5,0.6-97.3,7.8-119.1,18.6
		c-5.3,0.1-10.5,0.1-15.5,0c3.3,1,6.9,1.9,10.7,2.6c-5.5,3.2-9.7,6.7-12.9,10.4c5.6-3.4,12-6.5,19.3-9.5c12.3,1.5,26.7,1.2,43.6-1
		c-15.8,6.2-28.4,12.9-38.3,20.1c-7.8,1-15.1,1.3-21.6,1.1c4.6,1.7,10.1,2.7,16.6,2.8c-2.9,2.4-5.6,4.9-8,7.4
		c4.3-2.5,8.7-5,13.4-7.5c24.5-1.1,61-13.1,112.8-41.2c2.3-1.3,4.7-2.6,7.1-3.9c-2.4,1.3-4.7,2.6-7,4
		c-51.2,29.2-80.2,53.6-93.5,73.5c-4.6,2.7-9,5.1-13.4,7.4c3.4-0.7,7-1.7,10.6-3c-3.1,5.4-5,10.5-5.7,15.2c3.1-5.6,7-11.4,11.8-17.5
		c11.4-4.6,23.8-11.8,37.2-21.9c-10.5,12.9-17.9,24.9-22.7,35.8c-6.3,4.6-12.4,8.4-18.2,11.4c4.9-0.8,10.2-2.6,15.8-5.5
		c-1.3,3.5-2.3,6.9-3.1,10.2c2.4-4.2,5-8.5,7.7-12.9c20.7-12.8,46-40.7,76.3-90.1c1.4-2.2,2.7-4.5,4.1-6.8c0,0,0,0,0,0
		c-1.4,2.3-2.7,4.6-4,6.8c-29.2,50-41.6,85.1-42.8,108.7c-2.6,4.5-5.1,8.8-7.8,12.9c2.6-2.3,5.2-4.8,7.7-7.7
		c0.2,6.2,1.2,11.5,2.9,16c-0.2-6.3,0.1-13.3,1.1-20.8c7.4-9.5,14.5-21.7,20.9-36.9c-2.4,16.2-2.6,30.2-1.1,42
		c-3.1,7-6.3,13.2-9.8,18.6c3.8-3,7.5-7.1,10.8-12.4c0.7,3.7,1.6,7.1,2.7,10.4c-0.1-4.8-0.1-9.8,0-14.9
		c11.3-21,18.7-57.4,19.3-114.8c0-2.6,0-5.2,0-7.9c0,2.7,0,5.3,0,7.9c0.6,57.3,8.1,93.8,19.3,114.8c0.1,5.1,0.1,10.1,0,14.9
		c1.1-3.2,2-6.7,2.7-10.4c3.3,5.3,7,9.4,10.8,12.4c-3.5-5.4-6.8-11.6-9.8-18.6c1.5-11.8,1.3-25.7-1.1-42
		c6.4,15.2,13.4,27.4,20.9,36.9c1,7.6,1.4,14.5,1.1,20.8c1.8-4.5,2.8-9.8,2.9-16c2.5,2.8,5.1,5.4,7.7,7.7c-2.6-4.1-5.2-8.4-7.8-12.9
		c-1.2-23.6-13.6-58.8-42.8-108.7c-1.3-2.3-2.7-4.5-4-6.8c1.4,2.3,2.7,4.6,4.1,6.8c30.3,49.4,55.7,77.3,76.3,90.1
		c2.8,4.4,5.3,8.7,7.7,12.9c-0.7-3.3-1.8-6.7-3.1-10.2c5.6,3,10.9,4.8,15.8,5.5c-5.8-3-11.9-6.8-18.2-11.4
		c-4.8-11-12.2-22.9-22.7-35.8c13.4,10.1,25.8,17.2,37.2,21.9c4.8,6.1,8.7,11.9,11.8,17.5c-0.8-4.7-2.7-9.8-5.7-15.2
		c3.7,1.2,7.2,2.2,10.6,3c-4.4-2.3-8.9-4.8-13.4-7.4c-13.3-19.9-42.3-44.4-93.5-73.5c-2.3-1.3-4.6-2.6-7-3.9
		c2.4,1.3,4.7,2.6,7.1,3.9c51.9,28.2,88.3,40.1,112.8,41.2c4.7,2.5,9.1,5,13.4,7.5c-2.4-2.5-5-5-8-7.4c6.4-0.1,11.9-1.1,16.6-2.8
		c-6.6,0.2-13.8-0.1-21.6-1.1c-9.9-7.2-22.5-13.9-38.3-20.1C250.9,168.5,265.3,168.7,277.6,167.2z M78.2,58.4
		c4.5,3.7,9.1,7.9,13.8,12.5c18.2,17.8,38.2,42.1,59.9,74.2c-11.4-13.2-22.3-24.6-32.7-34.5C102.8,92,89.3,74.6,78.2,58.4z M75,87.3
		c-4.8-4.6-9.1-9-13-13.3c16.9,10.6,34.9,23.7,54.2,39.6c10.2,10,22.1,20.5,35.8,31.5C118.7,124.1,93.4,104.9,75,87.3z M152,145
		C152,145,152,145,152,145C152,145,152,145,152,145C152,145,152,145,152,145C152,145,152,145,152,145z M141.6,99.6
		c-4.7-24-7.4-45.7-8.5-65.1c2,5.4,3.8,11.2,5.5,17.5c6.6,24.2,11.3,54.8,13.4,93.1C149,128.2,145.5,113.1,141.6,99.6z M152,145
		L152,145C152,145,152,145,152,145C152,145,152,145,152,145z M166.6,100.5c8.4-23,17.2-43,26.4-60.4c-1.1,5.6-2.5,11.6-4.3,17.8
		C181.9,82,170,110.9,152,145C158.1,128.9,163,114.1,166.6,100.5z M152,145c13.7-11,25.5-21.5,35.8-31.5
		c19.2-15.9,37.3-29,54.2-39.6c-3.9,4.3-8.2,8.8-13,13.3C210.5,104.9,185.3,124.1,152,145C152,145,152,145,152,145z M152,145
		L152,145C152,145,152,145,152,145C152,145,152,145,152,145z M37.3,163.3c5.6-1.9,11.6-3.6,18.1-5.3c25.1-6.4,56.9-10.9,96.6-12.9
		c-17.5,2.9-33.1,6.3-47.1,10C79.9,159.5,57.4,162.2,37.3,163.3z M61.6,180.4c-6.5,1.7-12.6,3.1-18.5,4.2
		c18-8.8,38.8-17.3,62.7-25.4c14.1-3.5,29.5-8.2,46.2-14.1C116.5,162.4,86.6,173.8,61.6,180.4z M92.1,219.2
		c-4.7,4.6-9.3,8.8-13.8,12.5c11-16.3,24.6-33.7,41.1-52.2c10.4-9.9,21.3-21.3,32.7-34.5C130.3,177.1,110.3,201.5,92.1,219.2z
		 M138.6,238.1c-1.7,6.3-3.5,12.1-5.5,17.5c1.1-19.4,3.9-41.1,8.5-65.1c3.8-13.5,7.3-28.6,10.4-45.4
		C149.9,183.3,145.2,214,138.6,238.1z M152,145c-6.1,16.1-11,30.9-14.6,44.5c-8.4,23-17.2,43-26.4,60.4c1.1-5.6,2.5-11.6,4.3-17.8
		C122.1,208,134,179.2,152,145C152,145,152,145,152,145L152,145C152,145,152,145,152,145z M266.7,126.8c-5.6,1.9-11.6,3.6-18.1,5.3
		c-25.1,6.4-56.9,10.9-96.6,12.9c0,0,0,0,0,0c17.5-2.9,33.1-6.3,47.1-10C224.1,130.6,246.6,127.9,266.7,126.8z M152,145
		c35.5-17.4,65.4-28.8,90.4-35.4c6.5-1.7,12.6-3.1,18.5-4.2c-18,8.8-38.8,17.3-62.7,25.4C184.1,134.5,168.7,139.1,152,145
		C152,145,152,145,152,145z M152,145L152,145C152,145,152,145,152,145C152,145,152,145,152,145C152,145,152,145,152,145
		C152,145,152,145,152,145C152,145,152,145,152,145z M152,145C152,145,152,145,152,145C152,145,152,145,152,145
		C152,145,152,145,152,145C152,145,152,145,152,145z M188.7,232.1c1.8,6.3,3.2,12.2,4.3,17.8c-9.1-17.3-17.9-37.4-26.4-60.4
		C163,176,158.1,161.1,152,145C170,179.2,181.9,208,188.7,232.1z M225.8,231.7c-4.5-3.7-9.1-7.9-13.8-12.5
		c-18.2-17.8-38.2-42.1-59.9-74.2c0,0,0,0,0,0c0,0,0,0,0,0c0,0,0,0,0,0c11.4,13.2,22.3,24.6,32.7,34.5
		C201.1,198.1,214.7,215.4,225.8,231.7z M229,202.8c4.8,4.6,9.1,9,13,13.3c-16.9-10.6-34.9-23.7-54.2-39.6
		c-10.2-10-22.1-20.5-35.8-31.5c0,0,0,0,0,0c0,0,0,0,0,0C185.3,166,210.5,185.2,229,202.8z M260.9,184.6c-5.8-1.1-12-2.4-18.5-4.2
		c-25-6.6-54.9-18-90.4-35.4c0,0,0,0,0,0c16.7,5.9,32.1,10.6,46.2,14.1C222.1,167.3,242.9,175.8,260.9,184.6z M199.1,155
		c-14-3.7-29.7-7.1-47.1-10c0,0,0,0,0,0c39.7,2.1,71.5,6.6,96.6,12.9c6.5,1.6,12.5,3.4,18.1,5.3C246.6,162.2,224.1,159.5,199.1,155z
		"/>
	<polygon fill="#FFFFFF" points="152,145 152,145 152,145 	"/>
	<polygon fill="#FFFFFF" points="152,145 152,145 152,145 152,145 152,145 152,145 152,145 152,145 152,145 152,145 152,145 	"/>
	<polygon fill="#FFFFFF" points="152,145 152,145 152,145 	"/>
</g>
</svg>
