<?xml version="1.0" encoding="utf-8"?>
<!-- Generator: Adobe Illustrator 18.1.1, SVG Export Plug-In . SVG Version: 6.00 Build 0)  -->
<svg version="1.1" id="Layer_1" xmlns="http://www.w3.org/2000/svg" xmlns:xlink="http://www.w3.org/1999/xlink" x="0px" y="0px"
	 viewBox="0 0 300 300" enable-background="new 0 0 300 300" xml:space="preserve">
<g>
	<path fill="#A7A9AC" d="M149.7,4C67.1,4,0,71.1,0,153.7c0,66.2,42.9,122.3,102.4,142.1c7.6,1.3,10.1-3.2,10.1-7.2
		c0-3.5,0-12.9-0.3-25.5c-41.6,9.1-50.4-20.2-50.4-20.2c-6.9-17.3-16.7-22.1-16.7-22.1c-13.2-8.8,1.3-8.8,1.3-8.8
		c15.1,0.9,23,15.4,23,15.4c13.2,23,35,16.4,43.5,12.3c1.3-9.8,5.4-16.4,9.5-20.2c-33.1-3.5-68.1-16.1-68.1-73.7
		c0-16.4,6-29.6,15.4-40.3c-1.6-3.8-6.6-18.9,1.6-39.7c0,0,12.6-4.1,41.3,15.4c12-3.5,24.9-5,37.5-5c12.6,0,25.5,1.6,37.5,5
		c28.7-19.5,41.3-15.4,41.3-15.4c8.2,20.5,3.2,35.9,1.6,39.7c9.5,10.4,15.4,23.9,15.4,40.3c0,57.7-35,70.3-68.4,74.1
		c5.4,4.7,10.1,13.9,10.1,27.7c0,20.2-0.3,36.2-0.3,41c0,4.1,2.8,8.5,10.4,7.2C257.1,275.9,300,219.8,300,153.7
		C299.7,71.1,232.6,4,149.7,4z"/>
</g>
</svg>
