<?xml version="1.0" encoding="utf-8"?>
<!-- Generator: Adobe Illustrator 18.1.1, SVG Export Plug-In . SVG Version: 6.00 Build 0)  -->
<svg version="1.1" id="Layer_1" xmlns="http://www.w3.org/2000/svg" xmlns:xlink="http://www.w3.org/1999/xlink" x="0px" y="0px"
	 viewBox="0 0 300 300" enable-background="new 0 0 300 300" xml:space="preserve">
<g>
	<g>
		<g>
			<g>
				<path fill="#A7A9AC" d="M87,51.8c8.8,0,16.8,0.8,24.1,2.4c7.2,1.6,13.4,4.3,18.6,8c5.1,3.7,9.2,8.6,12.1,14.7
					c2.8,6.1,4.2,13.7,4.2,22.6c0,9.7-2.1,17.8-6.3,24.3c-4.2,6.5-10.5,11.8-18.8,15.9c11.3,3.4,19.8,9.4,25.3,18
					c5.6,8.6,8.3,18.9,8.3,30.9c0,9.8-1.8,18.2-5.4,25.3c-3.6,7.2-8.5,13-14.6,17.5c-6.1,4.5-13.1,7.8-21,10
					c-7.8,2.2-15.8,3.2-24.1,3.2H0V51.8H87z M81.8,129.7c7.2,0,13.2-1.8,17.9-5.4c4.7-3.6,6.9-9.5,6.9-17.5c0-4.5-0.7-8.2-2.3-11.1
					c-1.6-2.9-3.6-5.1-6.3-6.7c-2.6-1.6-5.5-2.8-8.9-3.4c-3.3-0.7-6.9-1-10.5-1h-38v45.1H81.8z M84,211.8c4,0,7.8-0.4,11.4-1.2
					c3.6-0.8,6.9-2.1,9.6-4.1c2.7-1.9,5-4.4,6.6-7.7c1.6-3.2,2.4-7.4,2.4-12.5c0-9.9-2.7-17-8-21.3c-5.3-4.2-12.4-6.3-21.2-6.3H40.6
					v53.1H84z"/>
				<path fill="#A7A9AC" d="M212.4,211.1c5.5,5.6,13.4,8.4,23.7,8.4c7.4,0,13.8-2,19.2-5.9c5.3-3.9,8.6-8.1,9.8-12.4h32.3
					c-5.2,16.8-13.1,28.8-23.8,36c-10.6,7.2-23.6,10.9-38.7,10.9c-10.5,0-20-1.8-28.5-5.3c-8.5-3.6-15.6-8.5-21.6-15
					c-5.8-6.5-10.3-14.2-13.6-23.3c-3.2-9-4.8-19-4.8-29.8c0-10.4,1.7-20.2,4.9-29.2c3.3-9,7.9-16.8,14-23.4
					c6.1-6.6,13.3-11.8,21.6-15.6c8.4-3.8,17.6-5.7,27.9-5.7c11.3,0,21.2,2.3,29.7,6.9c8.5,4.6,15.4,10.8,20.8,18.5
					c5.4,7.7,9.3,16.6,11.7,26.5c2.4,9.9,3.2,20.2,2.6,31.1h-96.4C203.4,195.1,206.9,205.5,212.4,211.1z M254.6,137.8
					c-4.4-5-11.7-7.8-20.8-7.8c-5.9,0-10.7,1-14.6,3.1c-3.8,2.1-6.9,4.7-9.3,7.7c-2.4,3.1-4,6.4-4.9,9.8c-0.9,3.4-1.5,6.5-1.7,9.2
					h59.7C262.2,150.1,259,142.8,254.6,137.8z"/>
				<rect x="195.8" y="64.7" fill="#A7A9AC" width="74.8" height="19"/>
			</g>
		</g>
	</g>
</g>
</svg>
