<?xml version="1.0" encoding="UTF-8" standalone="no"?>
<svg
   xmlns:dc="http://purl.org/dc/elements/1.1/"
   xmlns:cc="http://creativecommons.org/ns#"
   xmlns:rdf="http://www.w3.org/1999/02/22-rdf-syntax-ns#"
   xmlns:svg="http://www.w3.org/2000/svg"
   xmlns="http://www.w3.org/2000/svg"
   version="1.1"
   viewBox="0 0 500 500"
   data-name="Layer 1"
   id="Layer_1">
  <metadata
     id="metadata11">
    <rdf:RDF>
      <cc:Work
         rdf:about="">
        <dc:format>image/svg+xml</dc:format>
        <dc:type
           rdf:resource="http://purl.org/dc/dcmitype/StillImage" />
        <dc:title>goodreads</dc:title>
      </cc:Work>
    </rdf:RDF>
  </metadata>
  <defs
     id="defs9" />
  <title
     id="title2">goodreads</title>
  <path
     style="fill:#A7A9AC"
     id="path4"
     d="M108.48,392.55c12.58,0,24.14-.25,35.67.22,2.15.09,5.52,2.74,6.06,4.81,12.09,45.79,47.1,60.17,88.87,63.86,14.74,1.3,30.09,0,44.72-2.57,34.76-6.19,57.29-27.45,69.25-60.41,13.26-36.51,9.46-74.3,7.84-112.39-1.24,2.07-2.51,4.13-3.72,6.22-27,46.84-67.92,66.17-121.31,62.48-77.48-5.35-127.57-54.64-138.47-138.41-5.41-41.55-3-82.27,13.39-121.45,37.12-89,126.6-103.69,180-85.64,28.5,9.63,50,28.14,65.61,53.67,1.5,2.45,2.95,4.92,6.2,10.36V13.87H405V26.11c0,101.64.53,203.29-.4,304.92a309,309,0,0,1-8.84,70c-11.91,48.7-43.4,79.42-92.7,90.47-42.26,9.48-84.31,8.46-124.87-7.68-35.4-14.09-60.47-38.36-68.72-77.11a55.14,55.14,0,0,1-1-6.66C108.35,398.17,108.48,396.31,108.48,392.55ZM136.62,184c.28,5.08.17,13.77,1.4,22.27A228.45,228.45,0,0,0,144.44,237c14.06,48.45,52.28,80.65,97.89,83,49.51,2.55,89.45-23,108.22-71.39C369.9,198.73,368,148.49,345.87,100c-17.71-38.89-47.94-61.33-92.28-62.13-45.73-.82-77.89,20.5-98.83,60C141.09,123.57,137,151.66,136.62,184Z" />
</svg>
