<?xml version="1.0" encoding="UTF-8" standalone="no"?>
<svg
   xmlns:dc="http://purl.org/dc/elements/1.1/"
   xmlns:cc="http://creativecommons.org/ns#"
   xmlns:rdf="http://www.w3.org/1999/02/22-rdf-syntax-ns#"
   xmlns:svg="http://www.w3.org/2000/svg"
   xmlns="http://www.w3.org/2000/svg"
   xmlns:sodipodi="http://sodipodi.sourceforge.net/DTD/sodipodi-0.dtd"
   xmlns:inkscape="http://www.inkscape.org/namespaces/inkscape"
   id="Layer_1"
   data-name="Layer 1"
   viewBox="0 0 500 500"
   version="1.1"
   sodipodi:docname="lastfm.svg"
   inkscape:version="0.92.5 (2060ec1f9f, 2020-04-08)">
  <metadata
     id="metadata939">
    <rdf:RDF>
      <cc:Work
         rdf:about="">
        <dc:format>image/svg+xml</dc:format>
        <dc:type
           rdf:resource="http://purl.org/dc/dcmitype/StillImage" />
      </cc:Work>
    </rdf:RDF>
  </metadata>
  <defs
     id="defs937" />
  <sodipodi:namedview
     pagecolor="#ffffff"
     bordercolor="#666666"
     borderopacity="1"
     objecttolerance="10"
     gridtolerance="10"
     guidetolerance="10"
     inkscape:pageopacity="0"
     inkscape:pageshadow="2"
     inkscape:window-width="640"
     inkscape:window-height="480"
     id="namedview935"
     showgrid="false"
     inkscape:zoom="0.472"
     inkscape:cx="250"
     inkscape:cy="250"
     inkscape:window-x="4"
     inkscape:window-y="2"
     inkscape:window-maximized="0"
     inkscape:current-layer="Layer_1" />
  <title
     id="title930">lastfm</title>
  <path
     d="M3,239.5c1.28-8.87,2.22-17.8,3.91-26.58,5.89-30.58,18.53-57.4,44.07-76.68,16.83-12.72,36.13-19.4,56.89-21.8,26.09-3,52-1.9,77.38,5.38,27.48,7.88,47.81,24.84,62.43,49.12,12.31,20.43,19,43.11,26.49,65.47,5.35,16,10.43,32.06,16.44,47.79,7.5,19.65,19,36.46,37.78,47.21,16.72,9.56,35.05,12.28,53.91,12,12.68-.17,25.38-.73,37.54-5.16,10.14-3.69,18.09-9.43,19.22-21.08,1.25-12.93-4-22.78-15.15-29.45-10.69-6.37-22.81-8.39-34.58-11.52-16.43-4.36-33.17-7.93-49.06-13.78-21.59-7.95-36.87-23.1-41.32-46.46-4.85-25.49-2.77-50.09,14.78-71.05,11.49-13.7,26.83-21.33,43.93-25.28,31.31-7.22,62.53-7.35,93,4,26.49,9.88,43.12,34.22,43.61,63.1l-55.92,6.75c-.6-3.08-1-5.76-1.66-8.35-3.08-11.56-10-19.66-21.67-23.1-13.9-4.1-27.9-4.36-41.68.47-12.5,4.39-19.12,14-19.34,27.05-.23,13.88,5.37,23.77,18.25,28.12s26.4,6.72,39.53,10.35,26.59,6.58,39.08,11.82c31.56,13.24,46.67,37.67,46.15,72-.52,34-18.46,57.67-51.87,68.42-28,9-56.82,10-85.86,8.22a188.53,188.53,0,0,1-48.63-9.11c-32.2-10.75-56.25-31.29-69.95-62.14-9.35-21-16-43.31-23.49-65.14-6.27-18.19-11.53-36.71-20.53-53.91-14.06-26.84-36.42-38.72-66.12-37.94-25.7.67-45,12.7-55.82,35.59-15.94,33.62-17,68.84-4.28,103.59,12.85,35,42.46,49.65,79.3,41,18.68-4.4,34.88-13.67,49.07-26.52l3.84-3.45c.78,1.86,1.43,3.28,2,4.74,4.84,13.1,9.48,26.28,14.58,39.27,1.53,3.9.7,6-2.5,8.31-17.53,12.69-37.18,20.2-58.37,23.72-27.48,4.57-54.75,4.08-81.44-4.83-29.48-9.85-50-29.5-62-58-6.37-15.07-9.62-30.93-11-47.19-.14-1.72-.6-3.42-.91-5.12Z"
     id="path932"
     style="fill:#A7A9AC" />
</svg>
