<?xml version="1.0" encoding="utf-8"?>
<!-- Generator: Adobe Illustrator 18.1.1, SVG Export Plug-In . SVG Version: 6.00 Build 0)  -->
<svg version="1.1" id="Layer_1" xmlns="http://www.w3.org/2000/svg" xmlns:xlink="http://www.w3.org/1999/xlink" x="0px" y="0px"
	 viewBox="0 0 300 300" enable-background="new 0 0 300 300" xml:space="preserve">
<g>
	<path fill="#A7A9AC" d="M202,27.8c3.7,0,7.4,0,11.1,0c0.2,0.3,0.4,0.2,0.7,0.3c14.9,1.6,27.6,7.7,38.1,18.3
		c0.7,0.7,1.4,0.8,2.3,0.6c12.7-2.7,24.8-7.3,36.1-13.7c0.4-0.2,0.8-0.6,1.6-0.6C287.1,47,278.2,58,265.6,66.2
		c6-0.6,11.8-1.8,17.5-3.4c5.8-1.6,11.4-3.6,16.9-6c0,0.2,0,0.3,0,0.4c-0.4,0.6-0.7,1.1-1.1,1.6c-7.8,11.2-17.2,20.8-28.1,28.9
		c-0.9,0.7-1.2,1.4-1.2,2.5c0.5,14.7-0.8,29.3-4,43.6c-8.1,35.4-24.8,66-50.8,91.4c-11.8,11.4-25,20.8-39.6,28.3
		c-24.1,12.3-49.8,18.1-76.7,18.7c-10.4,0.2-20.7-0.4-30.9-2c-23.9-3.7-46-12-66.5-24.8c-0.3-0.2-0.8-0.3-1-0.9
		c16.2,1.8,32.1,0.6,47.7-3.8c15.6-4.4,29.8-11.6,42.9-21.7c-8.8-0.6-13.4-1.4-19.2-3.6c-18.4-6.8-30.9-19.5-37.7-37.9
		c-0.5-1.5-0.5-1.6,0.8-1.3c6.7,1.2,13.4,1.2,20.1,0.1c1.9-0.3,3.9-0.6,6-1.4c-0.6-0.2-0.9-0.3-1.3-0.4c-12.2-2.9-22.6-8.8-31-18
		C17.4,145,11.8,131.1,11.6,115c0-1.1,0.2-1.3,1.2-0.8c7.1,3.8,14.7,6,22.7,6.9c1.1,0.1,2.2,0.1,3.3,0.2c-1.7-1.6-3.3-2.9-5-4.2
		c-1.6-1.3-3.1-2.8-4.6-4.3C10.6,93.6,6.7,63.5,19.8,40.1c0.5-0.9,0.8-1,1.5-0.2c4.2,5.2,8.8,10.1,13.6,14.7
		c15.6,15,33.3,26.7,53.2,35.2c18.6,7.9,38.1,12.4,58.3,13.6c1.4,0.1,1.1-0.6,0.9-1.4c-1.6-7.8-1.8-15.6-0.4-23.3
		c4.6-25.6,24-45.1,49.7-50C198.4,28.4,200.3,28.4,202,27.8z"/>
</g>
</svg>
